<svg width="32" height="32" viewBox="0 0 32 32" fill="none" xmlns="http://www.w3.org/2000/svg">
<path d="M4.25011 16.0002C4.25011 15.8012 4.32913 15.6105 4.46978 15.4698C4.61043 15.3292 4.8012 15.2502 5.00011 15.2502L25.1889 15.2502L17.4701 7.53015C17.3964 7.46149 17.3373 7.37869 17.2963 7.28669C17.2553 7.19469 17.2333 7.09538 17.2315 6.99467C17.2297 6.89397 17.2483 6.79394 17.286 6.70056C17.3237 6.60717 17.3799 6.52233 17.4511 6.45111C17.5223 6.3799 17.6071 6.32375 17.7005 6.28603C17.7939 6.24831 17.8939 6.22978 17.9946 6.23156C18.0953 6.23334 18.1946 6.25538 18.2866 6.29637C18.3786 6.33736 18.4614 6.39647 18.5301 6.47015L27.5301 15.4702C27.6706 15.6108 27.7495 15.8014 27.7495 16.0002C27.7495 16.1989 27.6706 16.3895 27.5301 16.5302L18.5301 25.5302C18.3879 25.6626 18.1999 25.7348 18.0056 25.7313C17.8113 25.7279 17.6259 25.6492 17.4885 25.5118C17.3511 25.3744 17.2724 25.189 17.2689 24.9947C17.2655 24.8004 17.3376 24.6123 17.4701 24.4702L25.1889 16.7502L5.00011 16.7502C4.8012 16.7502 4.61043 16.6711 4.46978 16.5305C4.32913 16.3898 4.25011 16.1991 4.25011 16.0002Z" fill="white"/>
</svg>
