<svg width="32" height="32" viewBox="0 0 32 32" fill="none" xmlns="http://www.w3.org/2000/svg">
<path d="M27.75 16C27.75 16.1989 27.671 16.3896 27.5303 16.5303C27.3897 16.671 27.1989 16.75 27 16.75H6.81126L14.53 24.47C14.6037 24.5386 14.6628 24.6214 14.7038 24.7134C14.7448 24.8054 14.7668 24.9047 14.7686 25.0054C14.7704 25.1062 14.7519 25.2062 14.7141 25.2996C14.6764 25.393 14.6203 25.4778 14.549 25.549C14.4778 25.6202 14.393 25.6764 14.2996 25.7141C14.2062 25.7518 14.1062 25.7703 14.0055 25.7686C13.9048 25.7668 13.8055 25.7447 13.7135 25.7038C13.6215 25.6628 13.5387 25.6037 13.47 25.53L4.47001 16.53C4.32956 16.3893 4.25067 16.1987 4.25067 16C4.25067 15.8012 4.32956 15.6106 4.47001 15.47L13.47 6.46997C13.6122 6.33749 13.8002 6.26537 13.9945 6.26879C14.1888 6.27222 14.3742 6.35093 14.5116 6.48835C14.649 6.62576 14.7278 6.81114 14.7312 7.00545C14.7346 7.19975 14.6625 7.38779 14.53 7.52997L6.81126 15.25H27C27.1989 15.25 27.3897 15.329 27.5303 15.4696C27.671 15.6103 27.75 15.8011 27.75 16Z" fill="#617E8F"/>
</svg>
